<?xml version="1.0" encoding="utf-8" ?><svg xmlns="http://www.w3.org/2000/svg" xmlns:xlink="http://www.w3.org/1999/xlink" width="251" height="259" viewBox="0 0 251 259"><clipPath id="cl_4"><rect x="-7.6293945e-06" width="251.2782" height="258.63785"/></clipPath><g clip-path="url(#cl_4)"><path fill="#FEFEFE" transform="matrix(1.05137 0 0 1.05137 -112.497 -406.881)" d="M221.02 404.899C220.965 400.757 220.006 395.011 222.403 392.201C224.92 390.798 227.286 391.214 229.138 393.443C229.559 397.275 229.407 401.087 229.346 404.94C282.801 405.701 329.426 451.281 329.506 504.96C333.739 504.84 341.622 503.995 342.8 509.594C340.72 514.525 334.135 513.686 329.811 513.535C329.341 569.059 284.804 615.669 229.07 617.302C229.168 621.09 229.077 624.179 228.903 627.971C226.474 628.058 223.864 627.995 221.418 627.985C220.972 624.535 221.038 620.854 221.006 617.354C164.884 613.893 123.165 570.54 120.815 514.547C119.56 513.475 118.297 513.752 116.338 513.611C116.171 513.615 116.004 513.618 115.837 513.621L115.002 513.619C111.685 513.626 108.486 513.381 107.405 509.614C108.284 503.979 116.607 504.861 120.566 504.996C120.552 504.699 120.537 504.403 120.522 504.106C121.067 449.591 168.949 405.386 221.02 404.899ZM223.395 531.266C222.898 534.633 223.008 537.965 223.011 541.37C220.235 543.871 204.993 557.036 204.34 559.36C206.634 560.602 222.327 559.939 226.117 559.904C232.519 559.257 241.206 560.392 245.476 559.681C245.898 556.388 230.205 545.283 227.072 541.854C226.836 537.768 226.887 534.749 227.021 530.641C247.412 546.42 269.541 529.83 264.546 506.033C261.315 490.645 248.571 480.371 237.593 470.3C234.028 467.073 230.71 463.388 226.794 460.536C225.813 459.821 224.669 460.066 223.487 460.179C217.333 466.494 210.075 473.158 203.666 479.434C193.626 488.714 183.863 498.366 184.439 513.134C184.694 519.662 187.46 527.266 192.567 531.571C202.735 540.143 213.514 536.884 223.395 531.266Z"/><path fill="#F92E2C" transform="matrix(1.05137 0 0 1.05137 -112.497 -406.881)" d="M314.521 513.489L329.811 513.535C329.341 569.059 284.804 615.669 229.07 617.302L229.013 601.087C247.829 600.893 269.406 591.922 283.243 579.353C303.522 560.933 312.889 540.373 314.521 513.489Z"/><path fill="#F92E2C" transform="matrix(1.05137 0 0 1.05137 -112.497 -406.881)" d="M116.338 513.611C122.891 513.458 129.416 513.479 135.97 513.481C136.048 559.106 175.205 599.781 220.98 601.138L221.006 617.354C164.884 613.893 123.165 570.54 120.815 514.547C119.56 513.475 118.297 513.752 116.338 513.611Z"/><path fill="#F92E2C" transform="matrix(1.05137 0 0 1.05137 -112.497 -406.881)" d="M120.566 504.996C120.552 504.699 120.537 504.403 120.522 504.106C121.067 449.591 168.949 405.386 221.02 404.899L220.973 419.938C175.804 422.214 136.501 458.955 135.912 504.951L120.566 504.996Z"/><path fill="#F92E2C" transform="matrix(1.05137 0 0 1.05137 -112.497 -406.881)" d="M229.138 393.443C229.559 397.275 229.407 401.087 229.346 404.94C282.801 405.701 329.426 451.281 329.506 504.96C324.484 505.043 319.219 504.969 314.178 504.967C313.452 459.546 274.195 421.334 229.049 419.983L229.138 393.443Z"/><defs><linearGradient id="gradient_0" gradientUnits="userSpaceOnUse" x1="206.88158" y1="431.7579" x2="243.08156" y2="588.75061"><stop offset="0" stop-color="#D42323"/><stop offset="1" stop-color="#FF2F2D"/></linearGradient></defs><path fill="url(#gradient_0)" transform="matrix(1.05137 0 0 1.05137 -112.497 -406.881)" d="M229.044 428.926C240.781 430.295 249.128 431.665 259.896 436.929C287.228 450.291 302.72 475.159 305.295 504.914C301.5 504.875 296.547 504.605 296.548 509.931C298.301 514.355 301.166 513.633 305.217 513.488C304.345 550.118 277.389 582.733 241.401 590.312C237.278 591.18 233.245 591.677 229.071 592.189C229.171 587.758 229.896 583.507 225.623 580.783C220.44 580.48 220.89 587.647 220.964 591.015L220.721 591.684C220.278 591.839 219.767 592.051 219.289 592.014C178.41 588.88 146.326 554.309 144.905 513.516C147.484 513.606 153.481 514.029 153.496 509.491C153.513 504.547 148.391 504.919 144.863 504.956C147.408 463.265 179.542 432.08 220.936 429.242C220.854 433.037 220.302 438.133 225.354 438.806C229.834 437.107 229.139 432.808 229.044 428.926ZM223.395 531.266C222.898 534.633 223.008 537.965 223.011 541.37C220.235 543.871 204.993 557.036 204.34 559.36C206.634 560.602 222.327 559.939 226.117 559.904C232.519 559.257 241.206 560.392 245.476 559.681C245.898 556.388 230.205 545.283 227.072 541.854C226.836 537.768 226.887 534.749 227.021 530.641C247.412 546.42 269.541 529.83 264.546 506.033C261.315 490.645 248.571 480.371 237.593 470.3C234.028 467.073 230.71 463.388 226.794 460.536C225.813 459.821 224.669 460.066 223.487 460.179C217.333 466.494 210.075 473.158 203.666 479.434C193.626 488.714 183.863 498.366 184.439 513.134C184.694 519.662 187.46 527.266 192.567 531.571C202.735 540.143 213.514 536.884 223.395 531.266Z"/></g></svg>