<?xml version="1.0" encoding="utf-8" ?><svg xmlns="http://www.w3.org/2000/svg" xmlns:xlink="http://www.w3.org/1999/xlink" width="858" height="259" viewBox="0 0 858 259"><clipPath id="cl_3"><rect x="3.0517578e-05" y="3.0517578e-05" width="858" height="258.99997"/></clipPath><g clip-path="url(#cl_3)"><path fill="#FEFEFE" transform="matrix(1.05147 0 0 1.05285 -112.507 -407.451)" d="M221.02 404.899C220.965 400.757 220.006 395.011 222.403 392.201C224.92 390.798 227.286 391.214 229.138 393.443C229.559 397.275 229.407 401.087 229.346 404.94C282.801 405.701 329.426 451.281 329.506 504.96C333.739 504.84 341.622 503.995 342.8 509.594C340.72 514.525 334.135 513.686 329.811 513.535C329.341 569.059 284.804 615.669 229.07 617.302C229.168 621.09 229.077 624.179 228.903 627.971C226.474 628.058 223.864 627.995 221.418 627.985C220.972 624.535 221.038 620.854 221.006 617.354C164.884 613.893 123.165 570.54 120.815 514.547C119.56 513.475 118.297 513.752 116.338 513.611C116.171 513.615 116.004 513.618 115.837 513.621L115.002 513.619C111.685 513.626 108.486 513.381 107.405 509.614C108.284 503.979 116.607 504.861 120.566 504.996C120.552 504.699 120.537 504.403 120.522 504.106C121.067 449.591 168.949 405.386 221.02 404.899ZM223.395 531.266C222.898 534.633 223.008 537.965 223.011 541.37C220.235 543.871 204.993 557.036 204.34 559.36C206.634 560.602 222.327 559.939 226.117 559.904C232.519 559.257 241.206 560.392 245.476 559.681C245.898 556.388 230.205 545.283 227.072 541.854C226.836 537.768 226.887 534.749 227.021 530.641C247.412 546.42 269.541 529.83 264.546 506.033C261.315 490.645 248.571 480.371 237.593 470.3C234.028 467.073 230.71 463.388 226.794 460.536C225.813 459.821 224.669 460.066 223.487 460.179C217.333 466.494 210.075 473.158 203.666 479.434C193.626 488.714 183.863 498.366 184.439 513.134C184.694 519.662 187.46 527.266 192.567 531.571C202.735 540.143 213.514 536.884 223.395 531.266Z"/><path fill="#F92E2C" transform="matrix(1.05147 0 0 1.05285 -112.507 -407.451)" d="M314.521 513.489L329.811 513.535C329.341 569.059 284.804 615.669 229.07 617.302L229.013 601.087C247.829 600.893 269.406 591.922 283.243 579.353C303.522 560.933 312.889 540.373 314.521 513.489Z"/><path fill="#F92E2C" transform="matrix(1.05147 0 0 1.05285 -112.507 -407.451)" d="M116.338 513.611C122.891 513.458 129.416 513.479 135.97 513.481C136.048 559.106 175.205 599.781 220.98 601.138L221.006 617.354C164.884 613.893 123.165 570.54 120.815 514.547C119.56 513.475 118.297 513.752 116.338 513.611Z"/><path fill="#F92E2C" transform="matrix(1.05147 0 0 1.05285 -112.507 -407.451)" d="M120.566 504.996C120.552 504.699 120.537 504.403 120.522 504.106C121.067 449.591 168.949 405.386 221.02 404.899L220.973 419.938C175.804 422.214 136.501 458.955 135.912 504.951L120.566 504.996Z"/><path fill="#F92E2C" transform="matrix(1.05147 0 0 1.05285 -112.507 -407.451)" d="M229.138 393.443C229.559 397.275 229.407 401.087 229.346 404.94C282.801 405.701 329.426 451.281 329.506 504.96C324.484 505.043 319.219 504.969 314.178 504.967C313.452 459.546 274.195 421.334 229.049 419.983L229.138 393.443Z"/><defs><linearGradient id="gradient_0" gradientUnits="userSpaceOnUse" x1="206.88158" y1="431.7579" x2="243.08156" y2="588.75061"><stop offset="0" stop-color="#D42323"/><stop offset="1" stop-color="#FF2F2D"/></linearGradient></defs><path fill="url(#gradient_0)" transform="matrix(1.05147 0 0 1.05285 -112.507 -407.451)" d="M229.044 428.926C240.781 430.295 249.128 431.665 259.896 436.929C287.228 450.291 302.72 475.159 305.295 504.914C301.5 504.875 296.547 504.605 296.548 509.931C298.301 514.355 301.166 513.633 305.217 513.488C304.345 550.118 277.389 582.733 241.401 590.312C237.278 591.18 233.245 591.677 229.071 592.189C229.171 587.758 229.896 583.507 225.623 580.783C220.44 580.48 220.89 587.647 220.964 591.015L220.721 591.684C220.278 591.839 219.767 592.051 219.289 592.014C178.41 588.88 146.326 554.309 144.905 513.516C147.484 513.606 153.481 514.029 153.496 509.491C153.513 504.547 148.391 504.919 144.863 504.956C147.408 463.265 179.542 432.08 220.936 429.242C220.854 433.037 220.302 438.133 225.354 438.806C229.834 437.107 229.139 432.808 229.044 428.926ZM223.395 531.266C222.898 534.633 223.008 537.965 223.011 541.37C220.235 543.871 204.993 557.036 204.34 559.36C206.634 560.602 222.327 559.939 226.117 559.904C232.519 559.257 241.206 560.392 245.476 559.681C245.898 556.388 230.205 545.283 227.072 541.854C226.836 537.768 226.887 534.749 227.021 530.641C247.412 546.42 269.541 529.83 264.546 506.033C261.315 490.645 248.571 480.371 237.593 470.3C234.028 467.073 230.71 463.388 226.794 460.536C225.813 459.821 224.669 460.066 223.487 460.179C217.333 466.494 210.075 473.158 203.666 479.434C193.626 488.714 183.863 498.366 184.439 513.134C184.694 519.662 187.46 527.266 192.567 531.571C202.735 540.143 213.514 536.884 223.395 531.266Z"/><path fill="#FEFEFE" transform="matrix(1.05147 0 0 1.05285 -112.507 -407.451)" d="M545.516 459.611C570.522 456.42 593.385 474.09 596.601 499.092C599.818 524.095 582.171 546.976 557.172 550.218C532.137 553.465 509.215 535.787 505.994 510.748C502.773 485.709 520.474 462.806 545.516 459.611ZM552.072 535.057C555.662 535.024 558.925 534.627 562.447 532.995C588.833 520.77 582.869 474.244 551.671 474.152C551.506 474.172 551.341 474.192 551.176 474.212C512.458 476.834 515.875 534.563 551.651 535.055L552.072 535.057Z"/><path fill="#FEFEFE" transform="matrix(1.05147 0 0 1.05285 -112.507 -407.451)" d="M824.011 485.165C865.014 481.973 864.648 554.218 823.736 550.844C816.861 550.277 813.273 548.115 807.501 544.75C807.835 549.96 807.698 556.229 807.715 561.52L807.743 575.028L791.443 575.108L791.403 485.964L807.506 486.03L807.473 493.547C812.742 488.775 816.874 486.127 824.011 485.165ZM826.87 537.302C845.199 529.788 843.119 495.945 818.985 498.51C798.849 505.013 803.863 542.114 826.87 537.302Z"/><path fill="#FEFEFE" transform="matrix(1.05147 0 0 1.05285 -112.507 -407.451)" d="M375.484 459.921C396.977 460.059 433.221 454.2 439.689 481.942C444.38 502.066 433.779 518.363 412.625 520.524C405.993 520.761 399.039 520.869 392.413 520.73L392.491 549.082C386.861 549.103 381.206 549.237 375.575 549.34L375.484 459.921ZM392.403 505.103C400.041 505.073 407.539 505.076 415.17 504.735L419.158 501.977C425.946 492.778 424.982 476.081 410.67 475.444C404.599 475.174 398.407 475.399 392.32 475.482L392.403 505.103Z"/><path fill="#FEFEFE" transform="matrix(1.05147 0 0 1.05285 -112.507 -407.451)" d="M747.046 485.552C764.992 482.298 782.173 494.225 785.399 512.177C788.625 530.128 776.672 547.291 758.715 550.489C740.798 553.68 723.682 541.758 720.463 523.846C717.244 505.934 729.139 488.799 747.046 485.552ZM756.512 536.453C761.542 534.806 765.221 532.978 767.588 527.93C773.733 514.821 767.031 497.507 750.934 498.626C729.167 502.69 731.042 538.557 756.512 536.453Z"/><path fill="#FEFEFE" transform="matrix(1.05147 0 0 1.05285 -112.507 -407.451)" d="M885.777 485.16C888.05 484.87 891.231 484.981 893.501 485.326C914.308 488.482 919.044 504.688 919.42 521.936C904.302 522.194 888.685 522.009 873.529 522.019C875.907 531.183 880.755 537.636 891.222 537.956C897.051 538.133 899.828 535.429 903.672 531.581L911.961 531.852L919.391 531.999C915.112 541.976 907.661 548.637 896.803 550.492C852.419 558.072 843.776 490.814 885.777 485.16ZM889.375 511.151L904.21 511.166C901.492 501.232 899.029 497.33 887.968 497.145C878.663 498.71 876.214 503.185 873.369 511.514C878.612 511.37 884.154 511.125 889.375 511.151Z"/><path fill="#FEFEFE" transform="matrix(1.05147 0 0 1.05285 -112.507 -407.451)" d="M620.783 485.16C634.514 482.611 647.039 488.311 651.593 501.968C646.723 502.078 642.196 502.084 637.335 502.019C633.678 498.512 631.787 496.998 626.297 496.653C623.191 496.459 615.89 498.358 616.761 502.726C618.158 509.094 627.33 509.944 632.466 511.259C641.677 513.545 651.237 517.486 651.789 528.532C652.647 545.703 641.724 550.617 627.112 551.277C612.118 550.778 602.462 546.781 598.118 531.175C603.417 531.516 608.222 531.412 613.493 531.275C618.956 537.205 627.589 542.356 635.433 535.685C636.075 535.138 636.371 533.34 636.042 532.517C633.175 525.344 623.881 525.393 617.55 523.577C609.72 521.619 602.745 518.436 601.292 509.582C598.916 495.09 607.091 487.214 620.783 485.16Z"/><path fill="#FEFEFE" transform="matrix(1.05147 0 0 1.05285 -112.507 -407.451)" d="M448.027 459.919L465.001 459.985C464.672 484.367 465.013 509.558 465.028 534.004L502.118 533.984L502.124 549.502C484.404 549.156 465.807 549.426 448.017 549.407C447.718 519.86 447.877 489.475 448.027 459.919Z"/><path fill="#FEFEFE" transform="matrix(1.05147 0 0 1.05285 -112.507 -407.451)" d="M682.587 485.085C699.988 484.045 712.369 488.368 717.171 506.931C713.829 507.009 709.456 507.204 706.188 507.026C698.015 506.58 700.342 498.363 690.34 498.204C672.199 497.434 666.463 523.033 679.113 533.306C688.406 540.854 696.78 536.226 703.132 528.217C704.628 527.77 715.793 527.694 718.088 527.638C712.647 549.041 692.55 556.426 672.773 547.195C662.161 542.242 656.496 528.802 659.266 517.925C660.001 515.039 658.834 508.577 660.11 505.232C662.733 493.476 672.084 487.272 682.587 485.085Z"/></g></svg>